<?xml version="1.0" encoding="UTF-8" standalone="no"?>
<svg width="20px" height="16px" viewBox="0 0 20 16" version="1.1" xmlns="http://www.w3.org/2000/svg" xmlns:xlink="http://www.w3.org/1999/xlink" xmlns:sketch="http://www.bohemiancoding.com/sketch/ns">
    <!-- Generator: Sketch 3.3.2 (12043) - http://www.bohemiancoding.com/sketch -->
    <title>Artboard 1</title>
    <desc>Created with Sketch.</desc>
    <defs></defs>
    <g id="Page-1" stroke="none" stroke-width="1" fill="none" fill-rule="evenodd" sketch:type="MSPage">
        <g id="Artboard-1" sketch:type="MSArtboardGroup" fill="#1A7CB9">
            <path d="M19.8931765,1.81965325 C19.1613046,2.12835082 18.3746279,2.3368921 17.549159,2.43071224 C18.3917367,1.95045132 19.0389614,1.18996192 19.3436259,0.283730185 C18.55496,0.728523038 17.6815483,1.05140717 16.7518401,1.22542888 C16.0074353,0.471180768 14.9467298,0 13.7728315,0 C11.5189314,0 9.69144163,1.73746536 9.69144163,3.88057074 C9.69144163,4.18472878 9.72754748,4.48094266 9.79717373,4.76495629 C6.40518191,4.60313593 3.39792594,3.05813271 1.3849321,0.710270093 C1.03361806,1.28340376 0.832298497,1.94997928 0.832298497,2.66119566 C0.832298497,4.00758698 1.55283102,5.19537398 2.64795128,5.89126781 C1.97894336,5.8711234 1.34962195,5.6965348 0.799375457,5.40590158 C0.798911491,5.42207336 0.798911491,5.43833999 0.798911491,5.45470257 C0.798911491,7.33488501 2.20576019,8.90324759 4.07283667,9.25999066 C3.73037511,9.34870328 3.36981075,9.39608595 2.9976078,9.39608595 C2.73462017,9.39608595 2.47899336,9.37168545 2.229731,9.3264777 C2.74914231,10.86817 4.25635153,11.9901317 6.04236384,12.0213415 C4.64556232,13.0622513 2.88580935,13.6826739 0.97357388,13.6826739 C0.644141651,13.6826739 0.319286449,13.6642312 0,13.628386 C1.80620411,14.7295415 3.95148747,15.372 6.25631488,15.372 C13.7633156,15.372 17.8685777,9.45879116 17.8685777,4.33047111 C17.8685777,4.16221976 17.8645992,3.99491359 17.8567419,3.82836511 C18.6540608,3.2813337 19.3459469,2.59792246 19.8931104,1.81965325 L19.8931765,1.81965325 Z" id="path5-2" sketch:type="MSShapeGroup"></path>
        </g>
    </g>
</svg>