<?xml version="1.0" encoding="UTF-8" standalone="no"?>
<svg width="223px" height="65px" viewBox="0 0 223 65" version="1.1" xmlns="http://www.w3.org/2000/svg" xmlns:xlink="http://www.w3.org/1999/xlink" xmlns:sketch="http://www.bohemiancoding.com/sketch/ns">
    <!-- Generator: Sketch 3.3.2 (12043) - http://www.bohemiancoding.com/sketch -->
    <title>Artboard</title>
    <desc>Created with Sketch.</desc>
    <defs></defs>
    <g id="Page-1" stroke="none" stroke-width="1" fill="none" fill-rule="evenodd" sketch:type="MSPage">
        <g id="Artboard" sketch:type="MSArtboardGroup" fill="#333333">
            <path d="M6.45703125,11 L8.37304688,11 L5.4375,2.54492188 L3.35742188,2.54492188 L0.421875,11 L2.19726562,11 L2.84765625,8.984375 L5.81835938,8.984375 L6.45703125,11 Z M4.2890625,4.30273438 L4.39453125,4.30273438 L5.44335938,7.61914062 L3.22851562,7.61914062 L4.2890625,4.30273438 Z M9.81445312,2.5390625 L9.81445312,11 L13.1425781,11 C15.6738281,11 17.109375,9.45898438 17.109375,6.7109375 C17.109375,4.0625 15.65625,2.5390625 13.1425781,2.5390625 L9.81445312,2.5390625 Z M11.5839844,4.05078125 L12.8613281,4.05078125 C14.3964844,4.05078125 15.3046875,5.02929688 15.3046875,6.74023438 C15.3046875,8.52734375 14.4257812,9.48828125 12.8613281,9.48828125 L11.5839844,9.48828125 L11.5839844,4.05078125 Z M22.9101562,11 L25.7285156,2.54492188 L23.8242188,2.54492188 L21.9375,9.0078125 L21.8320312,9.0078125 L19.9101562,2.54492188 L17.9121094,2.54492188 L20.7714844,11 L22.9101562,11 Z M31.8398438,11 L33.7558594,11 L30.8203125,2.54492188 L28.7402344,2.54492188 L25.8046875,11 L27.5800781,11 L28.2304688,8.984375 L31.2011719,8.984375 L31.8398438,11 Z M29.671875,4.30273438 L29.7773438,4.30273438 L30.8261719,7.61914062 L28.6113281,7.61914062 L29.671875,4.30273438 Z M36.890625,11 L36.890625,5.70898438 L36.9960938,5.70898438 L40.8984375,11 L42.3632812,11 L42.3632812,2.54492188 L40.6699219,2.54492188 L40.6699219,7.8125 L40.5644531,7.8125 L36.6738281,2.54492188 L35.1972656,2.54492188 L35.1972656,11 L36.890625,11 Z M48.0058594,11.2167969 C50.0449219,11.2167969 51.5332031,9.95703125 51.6796875,8.12890625 L49.9570312,8.12890625 C49.7871094,9.06054688 49.0253906,9.65820312 48.0117188,9.65820312 C46.6757812,9.65820312 45.8496094,8.55078125 45.8496094,6.76953125 C45.8496094,4.98828125 46.6757812,3.88671875 48.0058594,3.88671875 C49.0136719,3.88671875 49.78125,4.52539062 49.9511719,5.49804688 L51.6738281,5.49804688 C51.5449219,3.65820312 50.0097656,2.328125 48.0058594,2.328125 C45.5507812,2.328125 44.0390625,4.02148438 44.0390625,6.76953125 C44.0390625,9.5234375 45.5566406,11.2167969 48.0058594,11.2167969 L48.0058594,11.2167969 Z M58.9101562,9.48828125 L55.078125,9.48828125 L55.078125,7.43164062 L58.6933594,7.43164062 L58.6933594,6.03125 L55.078125,6.03125 L55.078125,4.05664062 L58.9101562,4.05664062 L58.9101562,2.54492188 L53.3085938,2.54492188 L53.3085938,11 L58.9101562,11 L58.9101562,9.48828125 Z M60.7734375,2.5390625 L60.7734375,11 L64.1015625,11 C66.6328125,11 68.0683594,9.45898438 68.0683594,6.7109375 C68.0683594,4.0625 66.6152344,2.5390625 64.1015625,2.5390625 L60.7734375,2.5390625 Z M62.5429688,4.05078125 L63.8203125,4.05078125 C65.3554688,4.05078125 66.2636719,5.02929688 66.2636719,6.74023438 C66.2636719,8.52734375 65.3847656,9.48828125 63.8203125,9.48828125 L62.5429688,9.48828125 L62.5429688,4.05078125 Z" id="ADVANCED" sketch:type="MSShapeGroup"></path>
            <path d="M1,63 L1,25.5 L23.5,25.5 L23.5,33 L8.5,33 L8.5,40.5 L23.5,40.5 L23.5,48 L8.5,48 L8.5,63 L1,63 Z M27.25,63 L27.25,25.5 L34.75,25.5 L34.75,55.5 L46,55.5 L46,63 L27.25,63 Z M49.75,63 L49.75,25.5 L72.25,25.5 L72.25,33 L57.25,33 L57.25,40.5 L72.25,40.5 L72.25,48 L57.25,48 L57.25,55.5 L72.25,55.5 L72.25,63 L49.75,63 Z M76,63 L76,55.5 L83.5,51.75 L91,48 L98.4414062,44.25 L91,40.5 L83.5,36.75 L76,33 L76,25.5 L79.75,25.5 L87.1914062,29.25 L87.25,29.25 L94.6914062,33 L94.75,33 L102.191406,36.75 L102.25,36.75 L107.875,39.5625 L113.5,36.75 L121,33 L128.5,29.25 L136,25.5 L139.75,25.5 L139.75,33 L139.691406,33 L132.25,36.75 L132.191406,36.75 L124.75,40.5 L124.691406,40.5 L117.25,44.25 L124.691406,48 L124.75,48 L132.191406,51.75 L132.25,51.75 L139.691406,55.5 L139.75,55.5 L139.75,63 L136,63 L128.5,59.25 L121,55.5 L113.5,51.75 L107.875,48.9375 L102.25,51.75 L102.191406,51.75 L94.75,55.5 L94.6914062,55.5 L87.25,59.25 L87.1914062,59.25 L79.75,63 L76,63 Z M158.5,55.5 L158.5,48 L151,48 L151,55.5 L158.5,55.5 Z M158.5,40.5 L158.5,33 L151,33 L151,40.5 L158.5,40.5 Z M143.5,63 L143.5,25.5 L158.5,25.5 L162.191406,29.25 L162.25,29.25 L165.941406,33 L166,33 L166,40.5 L165.941406,40.5 L162.25,44.25 L165.941406,48 L166,48 L166,55.5 L165.941406,55.5 L162.25,59.25 L162.191406,59.25 L158.5,63 L143.5,63 Z M184.75,55.5 L184.75,33 L177.25,33 L177.25,55.5 L184.75,55.5 Z M177.25,63 L173.5,59.25 L169.75,55.5 L169.75,33 L173.5,29.25 L177.25,25.5 L184.75,25.5 L188.441406,29.25 L188.5,29.25 L192.191406,33 L192.25,33 L192.25,55.5 L192.191406,55.5 L188.5,59.25 L188.441406,59.25 L184.75,63 L177.25,63 Z M196,63 L196,55.5 L197.875,51.75 L199.75,48 L201.625,44.25 L202.5625,42.375 L201.625,40.5 L199.75,36.75 L197.875,33 L196,29.25 L196,25.5 L203.5,25.5 L205.316406,29.25 L205.375,29.25 L207.191406,33 L207.25,33 L209.125,29.25 L211,25.5 L218.5,25.5 L218.5,29.25 L218.441406,29.25 L216.625,33 L216.566406,33 L214.75,36.75 L214.691406,36.75 L212.875,40.5 L212.816406,40.5 L211.9375,42.375 L212.816406,44.25 L212.875,44.25 L214.691406,48 L214.75,48 L216.566406,51.75 L216.625,51.75 L218.441406,55.5 L218.5,55.5 L218.5,63 L212.875,63 L211,59.25 L209.125,55.5 L207.25,51.75 L207.191406,51.75 L205.375,55.5 L205.316406,55.5 L203.5,59.25 L203.441406,59.25 L201.625,63 L196,63 Z" id="fleXbox-Copy" sketch:type="MSShapeGroup"></path>
        </g>
    </g>
</svg>