<?xml version="1.0" encoding="UTF-8" standalone="no"?>
<svg width="211px" height="112px" viewBox="0 0 211 112" version="1.1" xmlns="http://www.w3.org/2000/svg" xmlns:xlink="http://www.w3.org/1999/xlink" xmlns:sketch="http://www.bohemiancoding.com/sketch/ns">
    <!-- Generator: Sketch 3.3.2 (12043) - http://www.bohemiancoding.com/sketch -->
    <title>Artboard Copy</title>
    <desc>Created with Sketch.</desc>
    <defs></defs>
    <g id="Page-1" stroke="none" stroke-width="1" fill="none" fill-rule="evenodd" sketch:type="MSPage">
        <g id="Artboard-Copy" sketch:type="MSArtboardGroup">
            <g id="ANTI-+-FRAGILE-+-DESIGN" sketch:type="MSLayerGroup" transform="translate(5.000000, 5.000000)" fill="#333333">
                <path d="M9.144,0.764 L4.032,0.764 L0.432,26 L3.996,26 L4.464,22.04 L8.46,22.04 L8.964,26 L12.78,26 L9.144,0.764 Z M6.444,5.876 L8.028,18.62 L4.896,18.62 L6.444,5.876 Z M33.7840001,26 L33.7840001,0.8 L30.3280001,0.8 L30.3280001,12.14 L30.3640001,16.352 L26.7640001,0.8 L22.2640001,0.8 L22.2640001,26 L25.7200001,26 L25.7200001,13.472 L25.6840001,9.044 L29.6080001,26 L33.7840001,26 Z M50.5040002,26 L50.5040002,4.292 L53.9600002,4.292 L53.9600002,0.8 L43.1960002,0.8 L43.1960002,4.292 L46.6520002,4.292 L46.6520002,26 L50.5040002,26 Z M67.2600003,0.8 L63.4080003,0.8 L63.4080003,26 L67.2600003,26 L67.2600003,0.8 Z" id="ANTI" sketch:type="MSShapeGroup"></path>
                <path d="M22.152,39.8 L22.152,65 L26.004,65 L26.004,54.056 L30.36,54.056 L30.36,50.564 L26.004,50.564 L26.004,43.292 L30.54,43.292 L30.54,39.8 L22.152,39.8 Z M49.1680001,53.12 C50.5720001,52.544 51.3640001,51.464 51.3640001,49.232 L51.3640001,44.48 C51.3640001,41.348 49.8160001,39.8 46.6840001,39.8 L40.3480001,39.8 L40.3480001,65 L44.2000001,65 L44.2000001,54.884 L45.9280001,54.884 C47.0440001,54.884 47.5480001,55.388 47.5480001,56.504 L47.5480001,65 L51.4000001,65 L51.4000001,56.432 C51.4000001,54.524 50.7520001,53.552 49.1680001,53.12 L49.1680001,53.12 Z M47.5120001,44.66 L47.5120001,49.988 C47.5120001,51.032 47.0080001,51.536 45.9280001,51.536 L44.2000001,51.536 L44.2000001,43.22 L46.0720001,43.22 C47.0440001,43.22 47.5120001,43.688 47.5120001,44.66 L47.5120001,44.66 Z M69.5240002,39.764 L64.4120002,39.764 L60.8120002,65 L64.3760002,65 L64.8440002,61.04 L68.8400002,61.04 L69.3440002,65 L73.1600002,65 L69.5240002,39.764 Z M66.8240002,44.876 L68.4080002,57.62 L65.2760002,57.62 L66.8240002,44.876 Z M90.0600003,54.56 L90.0600003,60.356 C90.0600003,61.364 89.5920003,61.832 88.5840003,61.832 L87.7200003,61.832 C86.7120003,61.832 86.2440003,61.364 86.2440003,60.356 L86.2440003,44.444 C86.2440003,43.436 86.7120003,42.968 87.7200003,42.968 L88.5120003,42.968 C89.4840003,42.968 89.9520003,43.436 89.9520003,44.444 L89.9520003,48.296 L93.7320003,48.296 L93.7320003,44.228 C93.7320003,41.132 92.2200003,39.584 89.0880003,39.584 L87.0720003,39.584 C83.9400003,39.584 82.3920003,41.132 82.3920003,44.264 L82.3920003,60.536 C82.3920003,63.668 83.9400003,65.216 87.0720003,65.216 L89.1240003,65.216 C92.2560003,65.216 93.8040003,63.668 93.8040003,60.536 L93.8040003,51.248 L88.0440003,51.248 L88.0440003,54.56 L90.0600003,54.56 Z M107.788,39.8 L103.936,39.8 L103.936,65 L107.788,65 L107.788,39.8 Z M118.028,39.8 L118.028,65 L126.128,65 L126.128,61.508 L121.88,61.508 L121.88,39.8 L118.028,39.8 Z M135.792001,39.8 L135.792001,65 L144.432001,65 L144.432001,61.508 L139.644001,61.508 L139.644001,53.912 L144.180001,53.912 L144.180001,50.42 L139.644001,50.42 L139.644001,43.292 L144.360001,43.292 L144.360001,39.8 L135.792001,39.8 Z" id="FRAGILE" sketch:type="MSShapeGroup"></path>
                <path d="M61.152,105 L66.948,105 C70.692,105 72.456,103.2 72.456,99.492 L72.456,85.308 C72.456,81.6 70.692,79.8 66.948,79.8 L61.152,79.8 L61.152,105 Z M65.004,83.184 L66.408,83.184 C67.92,83.184 68.604,83.904 68.604,85.416 L68.604,99.384 C68.604,100.896 67.92,101.616 66.408,101.616 L65.004,101.616 L65.004,83.184 Z M82.5880001,79.8 L82.5880001,105 L91.2280001,105 L91.2280001,101.508 L86.4400001,101.508 L86.4400001,93.912 L90.9760001,93.912 L90.9760001,90.42 L86.4400001,90.42 L86.4400001,83.292 L91.1560001,83.292 L91.1560001,79.8 L82.5880001,79.8 Z M109.82,92.076 L105.932,89.232 C105.212,88.728 104.852,88.224 104.852,87.18 L104.852,84.372 C104.852,83.4 105.32,82.932 106.292,82.932 L106.76,82.932 C107.732,82.932 108.2,83.4 108.2,84.372 L108.2,88.8 L111.98,88.8 L111.98,84.228 C111.98,81.132 110.432,79.584 107.336,79.584 L105.716,79.584 C102.584,79.584 101.036,81.132 101.036,84.264 L101.036,87.72 C101.036,89.664 101.54,90.852 103.268,92.076 L107.156,94.92 C107.876,95.46 108.236,95.928 108.236,96.972 L108.236,100.428 C108.236,101.4 107.768,101.868 106.76,101.868 L106.256,101.868 C105.248,101.868 104.78,101.4 104.78,100.428 L104.78,95.244 L101.036,95.244 L101.036,100.572 C101.036,103.668 102.548,105.216 105.68,105.216 L107.372,105.216 C110.504,105.216 112.052,103.668 112.052,100.536 L112.052,96.432 C112.052,94.38 111.512,93.3 109.82,92.076 L109.82,92.076 Z M125.928,79.8 L122.076,79.8 L122.076,105 L125.928,105 L125.928,79.8 Z M143.764,94.56 L143.764,100.356 C143.764,101.364 143.296,101.832 142.288,101.832 L141.424,101.832 C140.416,101.832 139.948,101.364 139.948,100.356 L139.948,84.444 C139.948,83.436 140.416,82.968 141.424,82.968 L142.216,82.968 C143.188,82.968 143.656,83.436 143.656,84.444 L143.656,88.296 L147.436,88.296 L147.436,84.228 C147.436,81.132 145.924,79.584 142.792,79.584 L140.776,79.584 C137.644,79.584 136.096,81.132 136.096,84.264 L136.096,100.536 C136.096,103.668 137.644,105.216 140.776,105.216 L142.828,105.216 C145.96,105.216 147.508,103.668 147.508,100.536 L147.508,91.248 L141.748,91.248 L141.748,94.56 L143.764,94.56 Z M169.124,105 L169.124,79.8 L165.668,79.8 L165.668,91.14 L165.704,95.352 L162.104,79.8 L157.604,79.8 L157.604,105 L161.06,105 L161.06,92.472 L161.024,88.044 L164.948,105 L169.124,105 Z" id="DESIGN" sketch:type="MSShapeGroup"></path>
            </g>
            <path d="M6.29559432,45 C6.29559432,45 0.553406816,93.2246094 39.6862193,107.189453" id="Path-133" stroke="#3E3E3E" stroke-width="3" sketch:type="MSShapeGroup"></path>
            <circle id="Oval-1" stroke="#333333" stroke-width="3" sketch:type="MSShapeGroup" cx="126" cy="13" r="11"></circle>
            <g id="Path-134-+-Path-135-Copy" sketch:type="MSLayerGroup" transform="translate(185.000000, 27.000000)" stroke="#333333" stroke-width="3">
                <path d="M0.61328125,0.685546875 L23.34375,27.0917969" id="Path-135" sketch:type="MSShapeGroup"></path>
                <path d="M0.61328125,0.685546875 L23.34375,27.0917969" id="Path-135-Copy" sketch:type="MSShapeGroup" transform="translate(11.978516, 13.888672) scale(-1, 1) translate(-11.978516, -13.888672) "></path>
            </g>
        </g>
    </g>
</svg>