<svg width="27" height="27" viewBox="0 0 27 27" xmlns="http://www.w3.org/2000/svg"><title>Combined Shape</title><path d="M20.722 0a5.933 5.933 0 0 1 5.934 5.933v14.79a5.933 5.933 0 0 1-5.934 5.933H5.933A5.933 5.933 0 0 1 0 20.722V5.933A5.933 5.933 0 0 1 5.933 0h14.79zM15.15 9.52c-.223.078-.438.278-.612.606-.436.819-.464 2.115-.082 2.993l4.679 8.103a1.2 1.2 0 0 0 1.581.344 1.2 1.2 0 0 0 .44-1.643l-1.174-2.034h1.768a1.2 1.2 0 0 0 1.089-1.197 1.2 1.2 0 0 0-1.203-1.202h-3.04L15.15 9.52zm-8.09 8.81c-.208 0-.414.026-.614.078l-.875 1.515a1.2 1.2 0 0 0 .44 1.643 1.2 1.2 0 0 0 1.582-.344l1.216-2.106a1.956 1.956 0 0 0-.239-.246 2.319 2.319 0 0 0-1.51-.54zm7.888-13.402a1.2 1.2 0 0 0-1.012.507l-.572.991-.573-.991a1.2 1.2 0 0 0-1.581-.345 1.2 1.2 0 0 0-.44 1.643l1.208 2.093-3.847 6.664H4.907a1.2 1.2 0 0 0-1.09 1.197 1.2 1.2 0 0 0 1.202 1.202h10.894c.316-.664.162-1.452-.467-1.993-.212-.182-.442-.406-.717-.406h-3.827l5.056-8.757a1.2 1.2 0 0 0-.44-1.643 1.201 1.201 0 0 0-.57-.162z" fill="currentColor" fill-rule="nonzero"/></svg>
