<?xml version="1.0" encoding="UTF-8"?>
<svg width="26px" height="26px" viewBox="0 0 26 26" version="1.1" xmlns="http://www.w3.org/2000/svg" xmlns:xlink="http://www.w3.org/1999/xlink">
    <!-- Generator: Sketch 62 (91390) - https://sketch.com -->
    <title>compass</title>
    <desc>Created with Sketch.</desc>
    <g id="Page-1" stroke="none" stroke-width="1" fill="none" fill-rule="evenodd">
        <g id="Artboard-Copy-135" transform="translate(-291.000000, -529.000000)" fill="currentColor" fill-rule="nonzero">
            <path d="M304.294922,529.564453 C311.204102,529.564453 316.929199,535.277344 316.929199,542.19873 C316.929199,549.10791 311.216309,554.820801 304.307129,554.820801 C297.397949,554.820801 291.685059,549.10791 291.685059,542.19873 C291.685059,535.277344 297.385742,529.564453 304.294922,529.564453 Z M310.312988,537.303711 C310.71582,536.424805 310.081055,535.753418 309.177734,536.180664 L309.177734,536.180664 L302.390625,539.391113 C301.987793,539.574219 301.719238,539.842773 301.511719,540.27002 L301.511719,540.27002 L298.289062,547.081543 C297.898438,547.936035 298.557617,548.607422 299.412109,548.20459 L299.412109,548.20459 L306.211426,544.981934 C306.626465,544.786621 306.907227,544.505859 307.102539,544.103027 L307.102539,544.103027 Z M304.307129,540.660645 C305.161621,540.660645 305.845215,541.356445 305.845215,542.19873 C305.845215,543.053223 305.161621,543.749023 304.307129,543.749023 C303.452637,543.749023 302.769043,543.053223 302.769043,542.19873 C302.769043,541.356445 303.452637,540.660645 304.307129,540.660645 Z" id="compass"></path>
        </g>
    </g>
</svg>