<svg width="17" height="17" viewBox="0 0 17 17" xmlns="http://www.w3.org/2000/svg" xmlns:xlink="http://www.w3.org/1999/xlink"><title>glyph-logo_May2016</title><defs><path id="a" d="M0 16.998h16.995V.005H0z"/></defs><g fill="none" fill-rule="evenodd" opacity=".9"><g><mask id="b" fill="#fff"><use xlink:href="#a"/></mask><path d="M8.497.005C6.19.005 5.9.015 4.994.056 4.089.098 3.472.241 2.93.451a4.165 4.165 0 0 0-1.505.98 4.165 4.165 0 0 0-.98 1.506c-.21.54-.354 1.158-.395 2.062C.01 5.906 0 6.195 0 8.503c0 2.307.01 2.597.051 3.503.041.905.185 1.522.395 2.063.217.559.508 1.032.98 1.505.473.472.946.763 1.505.98.54.21 1.158.354 2.063.395C5.9 16.99 6.19 17 8.497 17c2.308 0 2.597-.01 3.504-.051.904-.041 1.522-.185 2.062-.395a4.166 4.166 0 0 0 1.505-.98c.473-.473.763-.946.98-1.505.21-.54.354-1.158.396-2.063.04-.906.05-1.196.05-3.503 0-2.308-.01-2.597-.05-3.504-.042-.904-.185-1.522-.395-2.062a4.166 4.166 0 0 0-.98-1.505 4.165 4.165 0 0 0-1.506-.98c-.54-.21-1.158-.354-2.062-.396-.907-.04-1.196-.05-3.504-.05zm0 1.531c2.27 0 2.538.01 3.434.05.828.038 1.278.176 1.578.293.396.154.68.338.977.635.297.298.481.58.635.977.117.3.255.75.293 1.578.04.896.05 1.165.05 3.434s-.01 2.537-.05 3.433c-.038.829-.176 1.279-.293 1.578-.154.397-.338.68-.635.977-.298.298-.58.482-.977.636-.3.116-.75.255-1.578.292-.896.041-1.165.05-3.434.05s-2.537-.009-3.433-.05c-.829-.037-1.279-.176-1.578-.292a2.632 2.632 0 0 1-.977-.636 2.633 2.633 0 0 1-.636-.977c-.116-.3-.255-.75-.292-1.578-.041-.896-.05-1.164-.05-3.433 0-2.27.009-2.538.05-3.434.037-.828.176-1.278.292-1.578.154-.396.338-.68.636-.977.297-.297.58-.481.977-.635.3-.117.75-.255 1.578-.293.896-.04 1.164-.05 3.433-.05z" fill="currentColor" mask="url(#b)"/></g><path d="M8.5 11.421a2.921 2.921 0 1 1 0-5.842 2.921 2.921 0 0 1 0 5.842zM8.5 4a4.5 4.5 0 1 0 0 9 4.5 4.5 0 0 0 0-9zM14 4a1 1 0 1 1-2 0 1 1 0 0 1 2 0" fill="currentColor"/></g></svg>
