<svg width="20" height="16" viewBox="0 0 20 16" xmlns="http://www.w3.org/2000/svg"><title>path22</title><path d="M20 1.894a8.306 8.306 0 0 1-2.356.636A4.065 4.065 0 0 0 19.447.295a8.283 8.283 0 0 1-2.605.98A4.127 4.127 0 0 0 13.847 0c-2.266 0-4.103 1.808-4.103 4.04 0 .316.036.624.107.92A11.71 11.71 0 0 1 1.393.74a3.97 3.97 0 0 0-.555 2.03c0 1.401.724 2.637 1.825 3.362a4.13 4.13 0 0 1-1.858-.505v.05c0 1.958 1.414 3.59 3.29 3.961a4.164 4.164 0 0 1-1.852.07 4.1 4.1 0 0 0 3.833 2.805 8.32 8.32 0 0 1-5.097 1.729c-.33 0-.658-.02-.979-.057A11.75 11.75 0 0 0 6.29 16c7.547 0 11.674-6.155 11.674-11.493 0-.175-.005-.349-.012-.522a8.284 8.284 0 0 0 2.047-2.091" fill="currentColor" fill-rule="evenodd"/></svg>
